<?xml version="1.0" encoding="utf-8"?>
<!-- Generator: Adobe Illustrator 17.0.0, SVG Export Plug-In . SVG Version: 6.00 Build 0)  -->
<!DOCTYPE svg PUBLIC "-//W3C//DTD SVG 1.1//EN" "http://www.w3.org/Graphics/SVG/1.1/DTD/svg11.dtd">
<svg version="1.1" id="Layer_1" xmlns="http://www.w3.org/2000/svg" xmlns:xlink="http://www.w3.org/1999/xlink" x="0px" y="0px"
	 width="411.425px" height="268.809px" viewBox="273.923 85.12 411.425 268.809"
	 enable-background="new 273.923 85.12 411.425 268.809" xml:space="preserve">
<path fill="#7A8B97" d="M680.252,222.069c-0.775-2.146-1.537-2.177-1.864-2.074c-0.614-13.704-3.002-19.327-3.002-19.327
	s-17.351-19.963-21.589-23.793c-4.243-3.826-8.866-11.075-8.49-11.482c0.376-0.412,5.492-4.104,8.611-3.284
	c3.123,0.82,10.111,0.139,18.35-2.46s7.11-11.352,7.11-11.352s-2.616-9.708-12.728-12.168c-10.107-2.464-18.095-1.913-20.845,0.547
	c-2.751,2.46-0.116,13.534-0.116,13.534s0.869,2.191-2.128,2.325c-2.993,0.139-5.237-3.284-5.237-3.284
	c-4.243-13.812-28.708-48.465-34.07-52.51c-3.992-3.006-7.965-4.252-10.855-4.377c-0.466-0.018-1.25,0.139-1.541,1.142
	C572.884,86.943,487.02,85.12,487.02,85.12h-7.32l0,0h-7.325c0,0-85.864,1.823-104.832,8.391c-0.291-1.004-1.075-1.16-1.537-1.142
	c-2.894,0.125-6.868,1.371-10.859,4.377c-5.367,4.041-29.828,38.698-34.066,52.51c0,0-2.249,3.423-5.242,3.284
	c-2.993-0.134-2.124-2.325-2.124-2.325s2.634-11.075-0.116-13.534c-2.751-2.46-10.743-3.011-20.85-0.551
	c-10.111,2.464-12.732,12.172-12.732,12.172s-1.124,8.749,7.114,11.352c8.239,2.598,15.223,3.279,18.346,2.46
	c3.123-0.82,8.239,2.872,8.615,3.284c0.372,0.408-4.243,7.656-8.49,11.482c-4.243,3.835-21.589,23.798-21.589,23.798
	s-2.397,5.64-3.006,19.389c-0.193-0.121-1.084-0.493-1.985,2.012c-4.328,12.396-5.492,119.052-4.991,125.256
	c0.497,6.2,4.323,6.2,4.323,6.2s43.017,0.887,58.24,0c1.644-0.099,3.826-0.547,3.826-6.021c0-4.019,0-14.211,0-14.211v-0.927
	c3.754,0.058,7.607,0.34,11.482,0.95c3.06,0.47,5.367,2.052,5.367,2.052l40.186-0.139l82.244,0.963l82.239-0.963l40.186,0.139
	c0,0,2.307-1.581,5.367-2.052c3.826-0.596,7.638-0.887,11.352-0.95v0.927c0,0,0,10.188,0,14.211c0,5.475,2.182,5.918,3.826,6.021
	c15.223,0.887,58.235,0,58.235,0s3.826,0,4.332-6.2C685.744,341.125,684.579,234.465,680.252,222.069z M673.442,277.294
	l-5.161,34.724l-3.996-0.815L673.442,277.294z M657.462,280.211c0,0,2.334-0.179,1.169,3.1
	c-7.822,27.534-33.443,28.623-33.443,28.623s-25.128,0.188-27.96,0c-2.831-0.179-0.833-3.459-0.833-3.459
	s12.643-21.15,13.812-23.699c1.16-2.554,3.494-2.554,3.494-2.554L657.462,280.211z M643.74,189.867
	c3.163,1.039,12.728,6.017,8.861,34.733c-2.952,13.216-7.585,16.437-18.26,17.508c-9.466,0.945-46.632,1.908-46.632,1.908
	s-3.871,0.273-2.249-4.238c1.622-4.516,6.241-13.951,6.241-13.951s2.934-6.581,14.475-10.801c6.366-2.321,10.528-4.014,11.191-4.977
	c0.905-1.322-1.456,2.244,3.284-4.726C625.389,198.348,635.416,187.134,643.74,189.867z M358.269,101.257
	c0,0,65.91-7.746,120.978-7.791l0,0c0.076,0,0.152,0,0.228,0c0.081,0,0.152,0,0.228,0l0,0c55.073,0.045,120.978,7.791,120.978,7.791
	s18.095,23.659,30.079,57.16c-77.128-4.825-144.946-4.422-151.057-4.377v0.004c0,0-0.085-0.004-0.228-0.004
	c-0.148,0-0.228,0.004-0.228,0.004v-0.004c-6.106-0.045-73.929-0.448-151.052,4.377
	C340.175,124.911,358.269,101.257,358.269,101.257z M402.16,245.025c-11.316-2.007-13.978-9.668-13.978-9.668l-6.492-18.628
	c0,0-2.168-8.342,6.16-9.085c10.465-0.936,80.429-4.511,91.625-4.202c11.2-0.309,81.155,3.261,91.625,4.202
	c8.328,0.744,6.16,9.085,6.16,9.085l-6.487,18.628c0,0-2.666,7.661-13.978,9.668c-10.77,1.908-71.295,3.817-77.092,3.996v0.013
	c0,0-0.09,0-0.228-0.009c-0.148,0.009-0.228,0.009-0.228,0.009v-0.013C473.446,248.842,412.925,246.933,402.16,245.025z
	 M315.217,189.867c8.315-2.733,18.341,8.481,23.085,15.452c4.744,6.975,2.379,3.405,3.284,4.726
	c0.663,0.968,4.825,2.661,11.191,4.977c11.54,4.22,14.475,10.801,14.475,10.801s4.619,9.435,6.241,13.951
	c1.622,4.511-2.249,4.238-2.249,4.238s-37.157-0.963-46.632-1.908c-10.676-1.071-15.308-4.292-18.26-17.508
	C302.484,195.888,312.045,190.906,315.217,189.867z M301.485,280.211l43.765,2.007c0,0,2.33,0,3.49,2.554
	c1.165,2.549,13.812,23.699,13.812,23.699s1.994,3.279-0.833,3.459c-2.827,0.188-27.955,0-27.955,0s-25.626-1.084-33.448-28.623
	C299.156,280.031,301.485,280.211,301.485,280.211z M294.662,311.208l-3.992,0.815l-5.161-34.724L294.662,311.208z M371.042,324.706
	c-1.496,0-39.424-0.914-39.424-0.914s-16.652-0.367-21.477-6.747c-1.796-2.827,0.999-2.554,0.999-2.554s9.489,2.921,22.964,3.463
	c13.476,0.547,34.944,1.093,34.944,1.093s2.661,0,3.996,2.554C374.366,324.155,372.538,324.706,371.042,324.706z M573.601,322.99
	c-1.541,1.77-3.66,1.716-3.66,1.716h-90.236h-0.457h-90.232c0,0-2.128,0.054-3.665-1.716c-1.832-2.106-1.331-3.423,0.833-3.396
	l93.292,1.093l93.292-1.093C574.931,319.567,575.437,320.884,573.601,322.99z M580.419,312.489l-100.715,1.989v0.009l-0.228-0.009
	l-0.228,0.009v-0.009l-100.719-1.989c0,0-2.285,0.538-4.632-2.374c-2.352-2.912-14.838-25.339-14.838-25.339
	s-0.663-2.621,1.828-2.554l118.586,3.091l118.586-3.091c2.495-0.067,1.832,2.554,1.832,2.554s-12.481,22.427-14.833,25.339
	C582.708,313.027,580.419,312.489,580.419,312.489z M587.91,324.706c-1.501,0-3.324-0.547-1.994-3.1
	c1.331-2.554,3.996-2.554,3.996-2.554s21.459-0.547,34.948-1.093c13.471-0.542,22.956-3.463,22.956-3.463s2.795-0.273,1.003,2.554
	c-4.825,6.38-21.477,6.747-21.477,6.747S589.406,324.706,587.91,324.706z"/>
<ellipse fill="#7A8B97" cx="617.612" cy="296.71" rx="8.068" ry="8.848"/>
<ellipse fill="#7A8B97" cx="321.372" cy="294.161" rx="7.405" ry="8.113"/>
<ellipse fill="#7A8B97" cx="637.584" cy="294.161" rx="7.401" ry="8.113"/>
<ellipse fill="#7A8B97" cx="341.34" cy="296.715" rx="8.068" ry="8.844"/>
</svg>
